<svg xmlns="http://www.w3.org/2000/svg" width="22.81" height="20.276" viewBox="0 0 22.81 20.276">
  <path id="Icon_awesome-external-link-alt" data-name="Icon awesome-external-link-alt" d="M22.81.95V6.019a.951.951,0,0,1-1.622.672L19.774,5.277,10.13,14.92a.95.95,0,0,1-1.344,0l-.9-.9a.95.95,0,0,1,0-1.344l9.644-9.644L16.12,1.622A.951.951,0,0,1,16.792,0H21.86A.95.95,0,0,1,22.81.95Zm-6.691,9.773-.634.634a.95.95,0,0,0-.278.672v5.712H2.534V5.069H12.989a.951.951,0,0,0,.672-.278l.634-.634a.95.95,0,0,0-.672-1.622H1.9A1.9,1.9,0,0,0,0,4.435v13.94a1.9,1.9,0,0,0,1.9,1.9H15.84a1.9,1.9,0,0,0,1.9-1.9V11.4A.95.95,0,0,0,16.119,10.724Z" fill="#fff"/>
</svg>
