<svg xmlns="http://www.w3.org/2000/svg" width="78.634" height="62.907" viewBox="0 0 78.634 62.907">
  <path id="Icon_awesome-robot" data-name="Icon awesome-robot" d="M0,31.454V47.18a3.927,3.927,0,0,0,3.932,3.932H7.863V27.522H3.932A3.927,3.927,0,0,0,0,31.454ZM57.01,11.8H43.249V3.932a3.932,3.932,0,1,0-7.863,0V11.8H21.624A9.827,9.827,0,0,0,11.8,21.624V55.044a7.871,7.871,0,0,0,7.863,7.863H58.976a7.871,7.871,0,0,0,7.863-7.863V21.624A9.827,9.827,0,0,0,57.01,11.8ZM31.454,51.112H23.59V47.18h7.863ZM27.522,36.368a4.915,4.915,0,1,1,4.915-4.915A4.913,4.913,0,0,1,27.522,36.368ZM43.249,51.112H35.385V47.18h7.863Zm11.8,0H47.18V47.18h7.863ZM51.112,36.368a4.915,4.915,0,1,1,4.915-4.915A4.913,4.913,0,0,1,51.112,36.368ZM74.7,27.522H70.771v23.59H74.7a3.927,3.927,0,0,0,3.932-3.932V31.454A3.927,3.927,0,0,0,74.7,27.522Z" fill="#e1382b"/>
</svg>
