<svg id="Icon_material-streetview" data-name="Icon material-streetview" xmlns="http://www.w3.org/2000/svg" width="61.211" height="61.211" viewBox="0 0 61.211 61.211">
  <path id="Path_28" data-name="Path 28" d="M19.714,24.351A4.591,4.591,0,0,0,18,27.932V44.765H39.424a6.139,6.139,0,0,0,6.121-6.121v-18.3a27.457,27.457,0,0,0-25.831,4.009Z" transform="translate(9.545 16.446)" fill="#189e59"/>
  <path id="Path_29" data-name="Path 29" d="M50.105,16.8A15.3,15.3,0,1,1,34.8,1.5a15.3,15.3,0,0,1,15.3,15.3Z" transform="translate(11.105 -1.5)" fill="#189e59"/>
  <path id="Path_30" data-name="Path 30" d="M30.515,13.682A19.785,19.785,0,0,1,32.779,4.5H10.621A6.139,6.139,0,0,0,4.5,10.621V53.469a6.109,6.109,0,0,0,1.806,4.315L36.36,27.73A19.7,19.7,0,0,1,30.515,13.682Z" transform="translate(-4.5 1.621)" fill="#189e59"/>
</svg>
